<svg width="144" height="200" viewBox="0 0 144 200" fill="none" xmlns="http://www.w3.org/2000/svg">
<ellipse cx="89.9379" cy="51.0714" rx="23.622" ry="45.3888" transform="rotate(23.9775 89.9379 51.0714)" fill="#7F9F3A"/>
<ellipse cx="89.9379" cy="51.0714" rx="23.622" ry="45.3888" transform="rotate(23.9775 89.9379 51.0714)" fill="#7F9F3A"/>
<ellipse cx="89.9379" cy="51.0714" rx="23.622" ry="45.3888" transform="rotate(23.9775 89.9379 51.0714)" fill="#7F9F3A"/>
<ellipse cx="55.7092" cy="72.1414" rx="23.622" ry="45.3888" transform="rotate(-26.9051 55.7092 72.1414)" fill="#7F9F3A"/>
<ellipse cx="55.7092" cy="72.1414" rx="23.622" ry="45.3888" transform="rotate(-26.9051 55.7092 72.1414)" fill="#7F9F3A"/>
<ellipse cx="55.7092" cy="72.1414" rx="23.622" ry="45.3888" transform="rotate(-26.9051 55.7092 72.1414)" fill="#7F9F3A"/>
<path d="M0 71.9712H113.219C129.787 71.9712 143.219 85.4026 143.219 101.971V200H30C13.4315 200 0 186.569 0 170V71.9712Z" fill="url(#paint0_linear)"/>
<path d="M48.4274 101.706V168.714H39.6914V101.706H48.4274ZM118.373 101.706V109.866H95.2371V168.714H86.5011V109.866H63.3651V101.706H118.373Z" fill="white"/>
<defs>
<linearGradient id="paint0_linear" x1="64.7378" y1="129.837" x2="143.219" y2="200" gradientUnits="userSpaceOnUse">
<stop stop-color="#511B98"/>
<stop offset="1" stop-color="#981B6E" stop-opacity="0.77"/>
</linearGradient>
</defs>
</svg>
